<svg width="199" height="199" viewBox="0 0 199 199" fill="none" xmlns="http://www.w3.org/2000/svg">
<g clip-path="url(#clip0_371_99)">
<path d="M170.613 54.1545L146.466 61.3924C144.797 61.8926 142.993 61.6457 141.521 60.7163L114.917 43.9294C113.954 43.3221 112.839 43 111.702 43H107.326C106.101 43 104.905 43.3732 103.899 44.0693L86.8614 55.8535C85.4528 56.8277 84.5266 58.3548 84.3146 60.053L81.4182 83.2035C80.9975 86.5687 83.4427 89.6159 86.8214 89.9379L91.6744 90.3998C94.8971 90.7067 97.7855 88.4124 98.2134 85.207L100.199 70.3332C100.477 68.2483 101.825 66.4606 103.753 65.6175L110.559 62.643C112.367 61.8527 114.447 61.9981 116.128 63.0306L160.842 90.5213C163.458 92.1292 164.442 95.4465 163.128 98.2195L158.716 107.526C158.401 108.19 158.211 108.907 158.155 109.64C157.819 113.993 162.092 117.242 166.202 115.759L182.376 109.924C184.704 109.084 186.281 106.905 186.35 104.433L187 81.0378C187.023 80.1963 186.87 79.3588 186.549 78.5805L177.913 57.6268C176.734 54.7682 173.579 53.2674 170.615 54.1553L170.613 54.1545Z" fill="#660099"/>
<path d="M20.4518 54.5982L12.0162 104.399C11.9242 104.941 12.2321 105.471 12.7473 105.661L41.6112 116.284C42.0063 116.43 42.4503 116.346 42.7646 116.066L48.8742 110.641C49.2229 110.331 49.726 110.264 50.1436 110.473L63.0665 116.929C63.5289 117.159 65.1063 118.504 65.4494 118.118L69.6856 115.555C70.02 115.179 70.5615 115.066 71.0182 115.277L79.6498 118.827C79.7802 118.886 79.9218 118.922 80.0649 118.93L94.4597 117.287C94.8268 117.307 95.1628 117.503 95.3604 117.813L101.253 127.407C101.378 127.603 101.559 127.756 101.774 127.846L113.431 133.759C113.91 133.96 114.192 134.459 114.119 134.972L111.152 140.543C111.087 140.997 111.301 141.446 111.695 141.683L117.568 145.204C118.269 145.624 119.171 145.194 119.287 144.386L127.765 137.832C127.813 137.494 127.708 137.151 127.477 136.899L115.945 127.091C115.471 126.575 115.57 125.759 116.153 125.371L116.81 124.934C117.194 124.678 117.694 124.678 118.077 124.934L133.275 135.056C133.806 135.41 134.524 135.259 134.869 134.723L140.81 125.491C141.155 124.953 140.992 124.237 140.448 123.902L125.324 114.604C124.269 113.955 124.858 112.327 126.084 112.502C126.188 112.517 126.29 112.546 126.386 112.589L146.871 121.685C147.416 121.927 148.057 121.709 148.34 121.183L152.918 112.69C153.208 112.151 153.022 111.479 152.495 111.167L132.937 99.587C132.352 99.241 132.198 98.4642 132.605 97.9208L133.695 96.4696C134.014 96.0436 134.586 95.895 135.072 96.1115L154.902 104.917C155.434 105.153 156.06 104.952 156.353 104.449L160.849 96.7501C161.172 96.197 160.976 95.4866 160.415 95.1765L110.583 67.6027C109.979 67.2687 109.22 67.5412 108.966 68.1829L99.4158 92.4043C99.2038 92.9405 98.6255 93.2354 98.0664 93.0908L78.4228 88.0026C77.866 87.8587 77.5029 87.3225 77.5765 86.7527L81.3855 57.0692C81.4255 56.7591 81.5903 56.4786 81.8431 56.294L91.9376 48.8979C92.6263 48.3928 92.5376 47.3388 91.7729 46.9568L87.5975 44.871C87.2535 44.6992 86.8472 44.712 86.5144 44.9038L57.049 61.9472C56.7938 62.095 56.4915 62.1382 56.2051 62.0679L21.8492 53.68C21.2053 53.5226 20.5622 53.9445 20.4518 54.5982Z" fill="#660099"/>
<path d="M61.4503 119.718L55.7671 128.235C55.3688 128.831 54.5673 129 53.9618 128.615L47.3227 124.394C46.7252 124.014 46.5348 123.23 46.8916 122.618L51.8517 114.124L61.4503 119.718Z" fill="#660099"/>
<path d="M69.4682 119.004L61.6733 131.242C60.6782 132.804 61.1822 134.879 62.7828 135.812L66.6806 138.084C68.218 138.98 70.1905 138.481 71.116 136.962L78.8021 124.346C79.7955 122.716 79.182 120.584 77.4727 119.731L73.6828 117.838C72.1862 117.09 70.3657 117.594 69.4666 119.004H69.4682Z" fill="#660099"/>
<path d="M74.8152 140.336L84.833 121.57C85.6201 120.095 87.4406 119.515 88.9372 120.263L95.9914 123.787C97.6264 124.603 98.1967 126.653 97.2184 128.195L85.4785 146.715C84.5746 148.141 82.6917 148.576 81.2527 147.692L75.9207 144.414C74.5321 143.559 74.0481 141.773 74.8152 140.336Z" fill="#660099"/>
<path d="M91.546 149.229L99.7128 133.455C100.69 131.568 102.959 130.755 104.913 131.592L108.854 133.28C110.937 134.172 111.884 136.596 110.958 138.662L103.804 154.605C102.928 156.557 100.684 157.493 98.6794 156.742L93.7249 154.886C91.4492 154.033 90.4302 151.386 91.5468 149.23L91.546 149.229Z" fill="#660099"/>
</g>
<defs>
<clipPath id="clip0_371_99">
<rect width="175" height="114" fill="white" transform="translate(12 43)"/>
</clipPath>
</defs>
</svg>
