<svg width="199" height="199" viewBox="0 0 199 199" fill="none" xmlns="http://www.w3.org/2000/svg">
<path d="M65.4255 81.7042C69.4586 81.7042 72.728 78.4276 72.728 74.3858C72.728 70.3439 69.4586 67.0674 65.4255 67.0674C61.3925 67.0674 58.123 70.3439 58.123 74.3858C58.123 78.4276 61.3925 81.7042 65.4255 81.7042Z" fill="white"/>
<path d="M32.5645 117.991L69.6855 155.193L135.712 125.005L100.873 90.0898L32.5645 117.991Z" fill="#660099"/>
<path d="M34.0856 64.6278L32.2393 117.525L100.112 89.0224V33.8296L34.0856 64.6278Z" fill="#660099"/>
<path d="M33.7811 64.323L30.7384 117.686L69.3808 156.413V159.462L28 118.601L31.6512 62.1885L33.7811 64.323Z" fill="#660099"/>
<path d="M70.2939 155.803V159.157L136.016 128.054V125.614L70.2939 155.803Z" fill="#660099"/>
<path d="M31.9551 61.8834L34.085 64.0179L99.8074 33.5247L97.9818 32L31.9551 61.8834Z" fill="#660099"/>
<path d="M36.2157 65.2379L34.6943 114.332L98.2869 88.1079L98.5911 36.5742L36.2157 65.2379Z" fill="white"/>
<path d="M48.3281 79.8743L54.4135 86.8877L57.2098 81.094L61.1075 85.9729L63.5416 73.4707L59.9482 75.4772L59.923 81.0077L56.8803 78.5683L53.5007 83.5335L49.8495 77.4348L48.3281 79.8743Z" fill="#660099"/>
<path d="M64.208 73.1658L68.7721 81.7039L70.2934 76.825L73.6404 79.5694L74.8575 69.8115L72.5453 70.9398L72.4233 75.3003L69.6849 74.0806L68.4678 77.7398L66.3379 71.9461L64.208 73.1658Z" fill="#660099"/>
<path d="M75.4658 70.1165L79.4213 77.1299L80.9427 72.8609L83.3769 75.6053L83.6811 66.7622L81.5512 69.2017L81.8555 71.9461L80.3341 70.7263L79.1171 73.4707L78.2043 68.8967L75.4658 70.1165Z" fill="#660099"/>
<path d="M37.7363 118.906L42.6047 116.466L45.6474 120.43L40.4748 122.565L37.7363 118.906Z" fill="white"/>
<path d="M44.4307 116.161L47.1691 119.821L51.7332 116.771L48.9947 113.417L44.4307 116.161Z" fill="white"/>
<path d="M50.8203 112.807L53.5587 116.162L57.21 114.027L54.7758 111.283L50.8203 112.807Z" fill="white"/>
<path d="M56.2969 110.673L59.0353 114.027L62.3823 111.893L59.6438 109.453L56.2969 110.673Z" fill="white"/>
<path d="M61.7744 108.538L63.9043 111.588L67.2513 109.758L65.1214 107.014L61.7744 108.538Z" fill="white"/>
<path d="M66.0342 106.099L68.4683 109.453L71.511 107.624L69.3812 104.574L66.0342 106.099Z" fill="white"/>
<path d="M70.9023 103.964L73.0322 107.014L76.0749 105.489L73.945 102.745L70.9023 103.964Z" fill="white"/>
<path d="M75.4658 102.135L77.9 104.879L80.6384 103.049L78.2043 100.61L75.4658 102.135Z" fill="white"/>
<path d="M79.7256 100L81.8555 102.744L84.8982 101.22L82.7683 98.7803L79.7256 100Z" fill="white"/>
<path d="M84.5947 98.1704L86.7246 101.22L89.4631 99.6951L87.3332 96.9507L84.5947 98.1704Z" fill="white"/>
<path d="M89.4629 96.3406L91.2885 99.085L94.6355 97.5603L92.5056 94.8159L89.4629 96.3406Z" fill="white"/>
<path d="M94.6348 94.511L96.4604 97.2554L102.242 93.9011L100.112 91.7666L94.6348 94.511Z" fill="white"/>
<path d="M42.8105 123.782L47.6789 121.343L50.7216 125.307L45.549 127.441L42.8105 123.782Z" fill="white"/>
<path d="M49.5049 121.038L52.2433 124.697L56.8074 121.648L54.0689 118.293L49.5049 121.038Z" fill="white"/>
<path d="M55.8945 117.683L58.633 121.038L62.2842 118.903L59.85 116.159L55.8945 117.683Z" fill="white"/>
<path d="M61.3711 115.549L64.1095 118.903L67.4565 116.769L64.7181 114.329L61.3711 115.549Z" fill="white"/>
<path d="M66.8477 113.414L68.9775 116.464L72.3245 114.634L70.1946 111.89L66.8477 113.414Z" fill="white"/>
<path d="M71.1074 110.975L73.5416 114.329L76.5843 112.5L74.4544 109.45L71.1074 110.975Z" fill="white"/>
<path d="M75.9766 108.84L78.1065 111.89L81.1492 110.365L79.0193 107.621L75.9766 108.84Z" fill="white"/>
<path d="M80.54 107.011L82.9742 109.755L85.7126 107.925L83.2785 105.486L80.54 107.011Z" fill="white"/>
<path d="M84.7998 104.876L86.9297 107.62L89.9724 106.096L87.8425 103.656L84.7998 104.876Z" fill="white"/>
<path d="M89.668 103.046L91.7979 106.096L94.5363 104.571L92.4064 101.827L89.668 103.046Z" fill="white"/>
<path d="M94.5371 101.217L96.3627 103.961L99.7097 102.437L97.5798 99.6924L94.5371 101.217Z" fill="white"/>
<path d="M99.709 99.3875L101.535 102.132L107.316 98.7776L105.186 96.6431L99.709 99.3875Z" fill="white"/>
<path d="M48.2871 129.576L53.1554 127.136L56.1981 131.1L51.0255 133.235L48.2871 129.576Z" fill="white"/>
<path d="M54.9814 126.831L57.7199 130.491L62.2839 127.441L59.5455 124.087L54.9814 126.831Z" fill="white"/>
<path d="M61.3711 123.477L64.1095 126.832L67.7608 124.697L65.3266 121.953L61.3711 123.477Z" fill="white"/>
<path d="M66.8477 121.343L69.5861 124.697L72.9331 122.563L70.1946 120.123L66.8477 121.343Z" fill="white"/>
<path d="M72.3252 119.208L74.4551 122.258L77.8021 120.428L75.6722 117.684L72.3252 119.208Z" fill="white"/>
<path d="M76.585 116.768L79.0191 120.123L82.0618 118.293L79.9319 115.244L76.585 116.768Z" fill="white"/>
<path d="M81.4531 114.634L83.583 117.683L86.6257 116.158L84.4958 113.414L81.4531 114.634Z" fill="white"/>
<path d="M86.0166 112.804L88.4508 115.549L91.1892 113.719L88.755 111.28L86.0166 112.804Z" fill="white"/>
<path d="M90.2773 110.67L92.4072 113.414L95.4499 111.89L93.32 109.45L90.2773 110.67Z" fill="white"/>
<path d="M95.1455 108.84L97.2754 111.89L100.014 110.365L97.8839 107.621L95.1455 108.84Z" fill="white"/>
<path d="M100.014 107.011L101.839 109.755L105.186 108.23L103.056 105.486L100.014 107.011Z" fill="white"/>
<path d="M105.187 105.181L107.012 107.925L112.793 104.571L110.663 102.437L105.187 105.181Z" fill="white"/>
<path d="M53.7646 135.37L58.633 132.93L61.6757 136.894L56.5031 139.029L53.7646 135.37Z" fill="white"/>
<path d="M60.458 132.625L63.1964 136.284L67.7605 133.235L65.0221 129.881L60.458 132.625Z" fill="white"/>
<path d="M66.8477 129.271L69.5861 132.625L73.2373 130.49L70.8032 127.746L66.8477 129.271Z" fill="white"/>
<path d="M72.3252 127.136L75.0636 130.49L78.4106 128.356L75.6722 125.917L72.3252 127.136Z" fill="white"/>
<path d="M77.8018 125.002L79.9317 128.051L83.2786 126.221L81.1487 123.477L77.8018 125.002Z" fill="white"/>
<path d="M82.0615 122.562L84.4957 125.917L87.5384 124.087L85.4085 121.038L82.0615 122.562Z" fill="white"/>
<path d="M86.9297 120.428L89.0596 123.477L92.1023 121.952L89.9724 119.208L86.9297 120.428Z" fill="white"/>
<path d="M91.4941 118.598L93.9283 121.342L96.6667 119.513L94.2326 117.073L91.4941 118.598Z" fill="white"/>
<path d="M95.7539 116.463L97.8838 119.208L100.927 117.683L98.7966 115.244L95.7539 116.463Z" fill="white"/>
<path d="M100.622 114.634L102.752 117.683L105.49 116.158L103.361 113.414L100.622 114.634Z" fill="white"/>
<path d="M105.49 112.804L107.316 115.549L110.663 114.024L108.533 111.28L105.49 112.804Z" fill="white"/>
<path d="M110.663 110.975L112.489 113.719L118.27 110.365L116.14 108.23L110.663 110.975Z" fill="white"/>
<path d="M59.8496 141.468L64.7179 139.029L67.7606 142.993L62.588 145.127L59.8496 141.468Z" fill="white"/>
<path d="M66.5439 138.724L69.2824 142.383L73.8464 139.334L71.108 135.979L66.5439 138.724Z" fill="white"/>
<path d="M72.9336 135.369L75.672 138.724L79.3233 136.589L76.8891 133.845L72.9336 135.369Z" fill="white"/>
<path d="M78.4102 133.235L81.1486 136.589L84.4956 134.455L81.7571 132.015L78.4102 133.235Z" fill="white"/>
<path d="M83.8867 131.1L86.0166 134.15L89.3636 132.32L87.2337 129.576L83.8867 131.1Z" fill="white"/>
<path d="M88.1465 128.661L90.5806 132.015L93.6234 130.186L91.4935 127.136L88.1465 128.661Z" fill="white"/>
<path d="M93.0156 126.526L95.1455 129.576L98.1882 128.051L96.0583 125.307L93.0156 126.526Z" fill="white"/>
<path d="M97.5791 124.697L100.013 127.441L102.752 125.612L100.318 123.172L97.5791 124.697Z" fill="white"/>
<path d="M101.839 122.563L103.969 125.307L107.011 123.782L104.882 121.343L101.839 122.563Z" fill="white"/>
<path d="M106.707 120.733L108.837 123.782L111.575 122.258L109.445 119.513L106.707 120.733Z" fill="white"/>
<path d="M111.576 118.903L113.402 121.647L116.749 120.123L114.619 117.378L111.576 118.903Z" fill="white"/>
<path d="M116.748 117.073L118.574 119.818L124.355 116.464L122.225 114.329L116.748 117.073Z" fill="white"/>
<path d="M138.46 122.638L130.244 108.306L134.504 104.952L145.153 116.539L134.504 102.817L119.899 106.782L117.465 102.513L133.287 97.6336L139.981 102.208L133.287 96.4139L120.203 100.988L119.899 95.4991L134.808 90.9251L142.719 99.7681L143.328 98.8533L135.417 90.0103L124.767 93.3645L131.157 87.2659L139.372 86.3511L147.283 95.1941L147.892 94.8892L139.981 86.0462L133.895 86.3511L136.025 83.3018L143.328 83.9116L153.064 91.5349L162.193 105.562L164.931 122.028L156.411 131.481L138.46 122.638Z" fill="#660099"/>
<path d="M141.493 166.78L129.018 158.852L118.673 161.597V156.718L128.714 153.363L136.321 156.413L129.322 151.839L117.152 156.413L117.456 152.144L130.235 147.265L135.712 150.314L136.321 149.094L130.539 145.435L117.152 150.924L116.543 146.655L130.539 141.776L139.668 146.655L140.58 145.74L131.756 140.861L124.758 142.081L123.845 138.117L133.886 136.897L148.796 143.605L160.966 160.072L156.098 168L141.493 166.78Z" fill="#660099"/>
</svg>
