<svg width="199" height="199" viewBox="0 0 199 199" fill="none" xmlns="http://www.w3.org/2000/svg">
<g clip-path="url(#clip0_371_99)">
<path d="M106.295 154L116.906 111.628H92.0244L128.907 59.6254C131.634 55.7804 136.04 53.4808 140.75 53.4442L179.219 53.1445C188.078 53.0754 194.975 60.827 193.887 69.6299L183.501 153.634L106.295 154H106.295Z" fill="#660099"/>
<path d="M137.762 85.8623C140.187 85.8623 142.153 83.8941 142.153 81.4663C142.153 79.0385 140.187 77.0703 137.762 77.0703C135.337 77.0703 133.371 79.0385 133.371 81.4663C133.371 83.8941 135.337 85.8623 137.762 85.8623Z" fill="white"/>
<path d="M97.7057 128.549L78.1306 108.951C76.326 107.144 76.1867 104.261 77.8091 102.288L111.518 61.3012C113.955 58.3378 112.252 53.8451 108.465 53.2455L56.7528 45.0605C55.8122 44.9115 54.8489 45.037 53.9776 45.4219L7.95662 65.7555C5.42579 66.8738 4.29905 69.8497 5.4536 72.3664L21.2982 106.904C22.1066 108.666 23.8656 109.795 25.8022 109.795H59.9179C60.7375 109.795 61.5442 109.999 62.266 110.388L97.214 129.211C97.6362 129.438 98.0448 128.888 97.7057 128.549Z" fill="#660099"/>
</g>
<defs>
<clipPath id="clip0_371_99">
<rect width="189" height="109" fill="white" transform="translate(5 45)"/>
</clipPath>
</defs>
</svg>
