<?xml version="1.0" encoding="UTF-8"?>
<svg id="Lag_1" xmlns="http://www.w3.org/2000/svg" version="1.1" viewBox="0 0 960 560">
  <!-- Generator: Adobe Illustrator 29.4.0, SVG Export Plug-In . SVG Version: 2.1.0 Build 152)  -->
  <defs>
    <style>
      .st0 {
        fill: #662d91;
      }

      .st0, .st1 {
        stroke: #662d91;
        stroke-miterlimit: 10;
        stroke-width: 2px;
      }

      .st1 {
        fill: #fff;
      }
    </style>
  </defs>
  <rect class="st0" x="157.5" y="305.5" width="26" height="6"/>
  <rect class="st0" x="155.5" y="296.5" width="30" height="6"/>
  <path class="st0" d="M186.33,287.5h1.17v6h-34v-6h.17c-9.67-6.41-16.17-18.35-16.17-32,0-20.43,14.55-37,32.5-37s32.5,16.57,32.5,37c0,13.65-6.5,25.59-16.17,32Z"/>
  <path class="st1" d="M189.87,206.66c4.64-.22,9.29-.44,13.93-.66l-8.8,23.07h8.8c-6.98,13.64-13.95,27.29-20.93,40.93,2.9-10.35,5.81-20.7,8.71-31.04h-9.21c2.5-10.77,5-21.53,7.5-32.3Z"/>
</svg>