<?xml version="1.0" encoding="UTF-8"?>
<svg xmlns="http://www.w3.org/2000/svg" viewBox="0 0 1440.59 668.29">
  <defs>
    <style>
      .cls-1 {
        fill: #33f;
      }

      .cls-2 {
        fill: #609;
      }
    </style>
  </defs>
  <g id="F">
    <path class="cls-2" d="M273.16,39.18c4.19,21.43-12.16,40.26-32.95,40.26H77.77c-4.87,0-8.82,3.95-8.82,8.82v360.72c0,18.01-14.58,35.34-32.57,36.26-19.84,1.02-36.21-14.73-36.21-34.34V49.37c-.09-1.12-.17-2.33-.17-3.46C0,27.34,15.03,12.31,33.52,12.31h205.35c16.24,0,31.17,10.94,34.28,26.88Z"/>
  </g>
  <g id="j_dot" data-name="j dot">
    <circle class="cls-1" cx="428.8" cy="46.89" r="34.56"/>
  </g>
  <g id="J">
    <path class="cls-2" d="M325.15,483.2c-50.39,0-96.53-27.48-120.42-71.72-8.72-16.16-2.7-36.33,13.47-45.06,16.13-8.71,36.33-2.7,45.06,13.47,12.26,22.7,35.97,36.81,61.89,36.81,38.22,0,69.43-30.6,70.41-68.58v-196.43c0-18.37,14.88-33.25,33.25-33.25s33.25,14.89,33.25,33.25l.03,194.58c0,75.51-61.43,136.94-136.94,136.94Z"/>
  </g>
  <g id="o_dot" data-name="o dot">
    <rect class="cls-1" x="690.65" y="9.28" width="69.12" height="239.51" rx="34.56" ry="34.56"/>
    <rect class="cls-1" x="110.29" y="186.29" width="69.12" height="111.76" rx="34.56" ry="34.56" transform="translate(-97.32 387.02) rotate(-90)"/>
  </g>
  <g id="O">
    <path class="cls-2" d="M725.25,484.59c-131.07,0-237.7-106.63-237.7-237.7,0-84.54,45.46-163.31,118.62-205.59,16.53-9.56,37.67-3.89,47.22,12.64,9.54,16.53,3.89,37.67-12.64,47.21-51.86,29.97-84.08,85.81-84.08,145.74,0,92.95,75.62,168.57,168.57,168.57s168.49-75.62,168.49-168.57c0-59.88-32.2-115.73-84.02-145.75-16.51-9.57-22.15-30.71-12.58-47.23,9.57-16.52,30.72-22.15,47.23-12.59,73.1,42.34,118.5,121.11,118.5,205.57,0,131.07-106.6,237.7-237.61,237.7Z"/>
  </g>
  <g id="m_dot" data-name="m dot">
    <circle class="cls-1" cx="1405.48" cy="449.97" r="34.56"/>
  </g>
  <g id="M">
    <path class="cls-2" d="M1440.59,34.6v315.72c0,19.1-15.47,34.56-34.56,34.56s-34.56-15.47-34.56-34.56v-157.34l-124.25,270.96-.09.26c-.09.17-.17.35-.26.52-.69,1.38-1.38,2.76-2.25,3.97-.78,1.21-1.64,2.33-2.59,3.46-1.04,1.3-2.25,2.42-3.46,3.54-.43.43-.95.86-1.47,1.21-1.04.86-2.16,1.56-3.28,2.33-.6.35-1.21.69-1.81,1.04-.78.35-1.47.69-2.25,1.04-1.47.6-2.94,1.21-4.41,1.64-3.11.95-6.39,1.38-9.68,1.38s-6.48-.43-9.68-1.38c-1.47-.43-2.94-1.04-4.41-1.64-.78-.35-1.47-.69-2.25-1.04-.6-.35-1.21-.69-1.81-1.04-1.12-.69-2.25-1.47-3.28-2.33-.52-.35-.95-.78-1.47-1.21-2.07-1.81-3.89-3.89-5.36-6.05-.35-.43-.69-.95-.95-1.47-.95-1.38-1.64-2.76-2.33-4.23l-124.25-270.96v256.79c0,19.1-15.47,34.56-34.56,34.56s-34.56-15.47-34.56-34.56V34.6c0-3.63.52-7.26,1.73-10.71.26-.95.6-1.9,1.04-2.76,2.51-6.22,7-11.66,12.87-15.47,1.64-1.04,3.37-1.99,5.27-2.76,8.04-3.54,16.68-3.72,24.45-1.12.78.26,1.56.6,2.33.86,1.04.43,2.16.95,3.28,1.56,1.04.52,1.99,1.12,2.85,1.73,2.42,1.64,4.67,3.54,6.57,5.79.52.52,1.04,1.21,1.56,1.81,0,.09.09.09.17.17.95,1.3,1.81,2.68,2.68,4.15.35.78.78,1.56,1.12,2.33l.43.95,158.55,345.7L1374.23,21.12l.43-.95c.35-.78.78-1.56,1.12-2.33.86-1.47,1.73-2.85,2.68-4.15.09-.09.17-.09.17-.17.52-.6,1.04-1.3,1.56-1.81,1.9-2.25,4.15-4.15,6.57-5.79.86-.6,1.81-1.21,2.85-1.73,1.12-.6,2.25-1.12,3.28-1.56.78-.26,1.56-.6,2.33-.86,7.78-2.59,16.42-2.42,24.45,1.12,1.9.78,3.63,1.73,5.27,2.76,5.88,3.8,10.37,9.25,12.87,15.47.43.86.78,1.81,1.04,2.76,1.21,3.46,1.73,7.09,1.73,10.71Z"/>
    <g>
      <path class="cls-2" d="M12.6,574.37h19.17c4.98,0,9.26.46,12.83,1.39,3.57.92,6.8,2.66,9.71,5.21,7.56,6.47,11.34,16.3,11.34,29.52,0,4.36-.38,8.35-1.14,11.93-.76,3.6-1.93,6.85-3.51,9.74-1.59,2.88-3.62,5.47-6.09,7.75-1.95,1.75-4.08,3.15-6.39,4.21s-4.79,1.81-7.45,2.23-5.66.64-8.99.64H12.9c-2.68,0-4.69-.41-6.04-1.21-1.35-.81-2.24-1.95-2.65-3.42-.41-1.46-.62-3.37-.62-5.71v-53.25c0-3.17.71-5.46,2.13-6.88,1.41-1.42,3.71-2.14,6.88-2.14ZM18.3,586.02v49.28h11.15c2.44,0,4.36-.07,5.74-.2,1.39-.13,2.82-.46,4.31-.99s2.77-1.27,3.86-2.22c4.92-4.16,7.38-11.33,7.38-21.5,0-7.17-1.08-12.53-3.24-16.1-2.16-3.57-4.83-5.83-8-6.81-3.17-.97-7-1.45-11.49-1.45h-9.71Z"/>
      <path class="cls-2" d="M84.47,586.95c-1.88,0-3.49-.57-4.83-1.73s-2-2.8-2-4.91c0-1.92.68-3.49,2.05-4.72,1.37-1.24,2.96-1.86,4.78-1.86s3.3.56,4.66,1.68,2.03,2.75,2.03,4.9-.66,3.71-1.98,4.88c-1.32,1.18-2.89,1.76-4.71,1.76ZM91.16,600.92v39.08c0,2.71-.64,4.76-1.93,6.14-1.29,1.38-2.92,2.07-4.9,2.07s-3.59-.7-4.83-2.12c-1.24-1.42-1.86-3.45-1.86-6.09v-38.69c0-2.68.62-4.69,1.86-6.04,1.24-1.35,2.85-2.03,4.83-2.03s3.62.67,4.9,2.03,1.93,3.24,1.93,5.65Z"/>
      <path class="cls-2" d="M154.86,603.15v39.28c0,4.49-.48,8.36-1.44,11.59s-2.49,5.91-4.61,8.03-4.88,3.68-8.3,4.7-7.67,1.54-12.75,1.54c-4.66,0-8.82-.66-12.48-1.96-3.67-1.31-6.48-2.99-8.47-5.05-1.98-2.07-2.97-4.18-2.97-6.36,0-1.65.56-2.99,1.68-4.04,1.12-1.03,2.48-1.56,4.06-1.56,1.98,0,3.71.88,5.2,2.63.73.89,1.48,1.79,2.26,2.7.78.91,1.63,1.68,2.58,2.33.94.64,2.07,1.11,3.39,1.43s2.84.47,4.56.47c3.5,0,6.21-.5,8.15-1.46s3.29-2.33,4.06-4.08,1.23-3.62,1.36-5.63c.13-1.99.23-5.21.3-9.63-2.08,2.91-4.48,5.12-7.21,6.64-2.72,1.52-5.97,2.28-9.73,2.28-4.52,0-8.48-1.16-11.86-3.47s-5.98-5.55-7.8-9.71-2.72-8.96-2.72-14.41c0-4.06.55-7.73,1.66-11s2.69-6.02,4.73-8.27c2.04-2.25,4.4-3.94,7.08-5.08,2.68-1.14,5.61-1.71,8.82-1.71,3.83,0,7.15.73,9.96,2.2,2.8,1.46,5.41,3.77,7.82,6.9v-1.83c0-2.34.58-4.16,1.73-5.45s2.64-1.93,4.46-1.93c2.61,0,4.34.85,5.2,2.54.86,1.71,1.29,4.15,1.29,7.35ZM115.67,620.29c0,5.48,1.2,9.62,3.59,12.43s5.49,4.22,9.29,4.22c2.25,0,4.37-.61,6.36-1.82,2-1.2,3.62-3.02,4.88-5.44,1.26-2.43,1.88-5.38,1.88-8.85,0-5.5-1.21-9.8-3.64-12.87s-5.62-4.61-9.58-4.61-6.96,1.48-9.29,4.41-3.5,7.11-3.5,12.53Z"/>
      <path class="cls-2" d="M175.36,586.95c-1.88,0-3.49-.57-4.83-1.73s-2-2.8-2-4.91c0-1.92.68-3.49,2.05-4.72,1.37-1.24,2.96-1.86,4.78-1.86s3.3.56,4.66,1.68,2.03,2.75,2.03,4.9-.66,3.71-1.98,4.88c-1.32,1.18-2.89,1.76-4.71,1.76ZM182.05,600.92v39.08c0,2.71-.64,4.76-1.93,6.14-1.29,1.38-2.92,2.07-4.9,2.07s-3.59-.7-4.83-2.12-1.86-3.45-1.86-6.09v-38.69c0-2.68.62-4.69,1.86-6.04s2.85-2.03,4.83-2.03,3.62.67,4.9,2.03,1.93,3.24,1.93,5.65Z"/>
      <path class="cls-2" d="M196.76,594.44h1.49v-8.12c0-2.18.06-3.9.17-5.13s.44-2.3.97-3.19c.52-.92,1.29-1.67,2.28-2.26.99-.57,2.09-.87,3.31-.87,1.72,0,3.27.65,4.66,1.94.92.86,1.51,1.9,1.76,3.15.25,1.23.37,2.99.37,5.27v9.21h4.95c1.92,0,3.37.45,4.38,1.35,1.01.91,1.51,2.07,1.51,3.49,0,1.82-.72,3.09-2.16,3.82s-3.49,1.09-6.17,1.09h-2.53v24.86c0,2.11.08,3.74.23,4.88.15,1.14.54,2.07,1.19,2.77.64.72,1.69,1.07,3.14,1.07.79,0,1.87-.14,3.22-.42,1.35-.29,2.41-.42,3.17-.42,1.09,0,2.07.43,2.95,1.31.88.87,1.32,1.96,1.32,3.25,0,2.18-1.19,3.84-3.57,5s-5.8,1.73-10.26,1.73c-4.23,0-7.43-.7-9.61-2.12-2.17-1.42-3.61-3.38-4.28-5.89-.68-2.51-1.01-5.87-1.01-10.06v-25.95h-1.78c-1.95,0-3.43-.46-4.46-1.39s-1.54-2.1-1.54-3.52.53-2.58,1.61-3.49c1.07-.9,2.64-1.35,4.68-1.35Z"/>
      <path class="cls-2" d="M266.1,640.6c-3.26,2.54-6.43,4.45-9.48,5.71-3.06,1.28-6.48,1.9-10.28,1.9-3.47,0-6.51-.68-9.14-2.05-2.63-1.38-4.65-3.23-6.07-5.57s-2.13-4.89-2.13-7.63c0-3.7,1.17-6.86,3.52-9.47,2.34-2.6,5.56-4.35,9.66-5.24.86-.2,2.99-.65,6.39-1.34,3.4-.69,6.31-1.33,8.74-1.9,2.43-.58,5.06-1.28,7.9-2.1-.17-3.57-.88-6.19-2.15-7.85-1.27-1.67-3.9-2.51-7.9-2.51-3.43,0-6.02.48-7.75,1.44s-3.22,2.39-4.46,4.3-2.11,3.18-2.63,3.79c-.51.62-1.61.92-3.29.92-1.52,0-2.83-.5-3.94-1.46-1.11-.98-1.66-2.22-1.66-3.74,0-2.38.84-4.69,2.53-6.94s4.3-4.08,7.87-5.55c3.57-1.44,8.01-2.17,13.33-2.17,5.95,0,10.61.69,14.01,2.1,3.4,1.4,5.8,3.62,7.21,6.66,1.4,3.04,2.1,7.07,2.1,12.09,0,3.17-.01,5.86-.03,8.07s-.04,4.67-.07,7.38c0,2.54.42,5.2,1.26,7.95.84,2.76,1.27,4.54,1.27,5.33,0,1.39-.66,2.65-1.96,3.79-1.3,1.14-2.78,1.71-4.43,1.71-1.39,0-2.76-.65-4.11-1.95-1.35-1.31-2.79-3.19-4.31-5.67ZM265.21,621.02c-1.98.74-4.86,1.5-8.64,2.31-3.78.8-6.4,1.4-7.85,1.78-1.45.37-2.84,1.12-4.16,2.22-1.32,1.11-1.98,2.65-1.98,4.63s.78,3.79,2.33,5.22c1.55,1.44,3.58,2.16,6.09,2.16,2.68,0,5.14-.58,7.4-1.76,2.26-1.17,3.92-2.68,4.98-4.52,1.22-2.05,1.83-5.42,1.83-10.11v-1.94Z"/>
      <path class="cls-2" d="M292.21,640.01v-58.65c0-2.71.6-4.76,1.81-6.14s2.83-2.08,4.88-2.08,3.7.68,4.95,2.06c1.26,1.37,1.88,3.42,1.88,6.17v58.65c0,2.74-.63,4.79-1.9,6.17-1.27,1.37-2.92,2.05-4.93,2.05s-3.59-.7-4.83-2.12-1.86-3.45-1.86-6.09Z"/>
      <path class="cls-2" d="M320.44,594.44h1.49v-8.12c0-2.18.06-3.9.17-5.13s.44-2.3.97-3.19c.52-.92,1.29-1.67,2.28-2.26.99-.57,2.09-.87,3.31-.87,1.72,0,3.27.65,4.66,1.94.92.86,1.51,1.9,1.76,3.15.25,1.23.37,2.99.37,5.27v9.21h4.95c1.92,0,3.37.45,4.38,1.35,1.01.91,1.51,2.07,1.51,3.49,0,1.82-.72,3.09-2.16,3.82s-3.49,1.09-6.17,1.09h-2.53v24.86c0,2.11.08,3.74.23,4.88.15,1.14.54,2.07,1.19,2.77.64.72,1.69,1.07,3.14,1.07.79,0,1.87-.14,3.22-.42,1.35-.29,2.41-.42,3.17-.42,1.09,0,2.07.43,2.95,1.31.88.87,1.32,1.96,1.32,3.25,0,2.18-1.19,3.84-3.57,5s-5.8,1.73-10.26,1.73c-4.23,0-7.43-.7-9.61-2.12-2.17-1.42-3.61-3.38-4.28-5.89s-1.01-5.87-1.01-10.06v-25.95h-1.78c-1.95,0-3.43-.46-4.46-1.39s-1.54-2.1-1.54-3.52.53-2.58,1.61-3.49c1.07-.9,2.64-1.35,4.68-1.35Z"/>
      <path class="cls-2" d="M415.14,640.6c-3.26,2.54-6.43,4.45-9.48,5.71-3.06,1.28-6.48,1.9-10.28,1.9-3.47,0-6.51-.68-9.14-2.05-2.63-1.38-4.65-3.23-6.07-5.57s-2.13-4.89-2.13-7.63c0-3.7,1.17-6.86,3.52-9.47,2.34-2.6,5.56-4.35,9.66-5.24.86-.2,2.99-.65,6.39-1.34,3.4-.69,6.31-1.33,8.74-1.9,2.43-.58,5.06-1.28,7.9-2.1-.17-3.57-.88-6.19-2.15-7.85-1.27-1.67-3.9-2.51-7.9-2.51-3.43,0-6.02.48-7.75,1.44s-3.22,2.39-4.46,4.3-2.11,3.18-2.63,3.79c-.51.62-1.61.92-3.29.92-1.52,0-2.83-.5-3.94-1.46-1.11-.98-1.66-2.22-1.66-3.74,0-2.38.84-4.69,2.53-6.94,1.68-2.25,4.3-4.08,7.87-5.55,3.57-1.44,8.01-2.17,13.33-2.17,5.95,0,10.61.69,14.01,2.1,3.4,1.4,5.8,3.62,7.21,6.66,1.4,3.04,2.1,7.07,2.1,12.09,0,3.17-.01,5.86-.03,8.07s-.04,4.67-.07,7.38c0,2.54.42,5.2,1.26,7.95.84,2.76,1.27,4.54,1.27,5.33,0,1.39-.66,2.65-1.96,3.79-1.3,1.14-2.78,1.71-4.43,1.71-1.39,0-2.76-.65-4.11-1.95-1.35-1.31-2.79-3.19-4.31-5.67ZM414.25,621.02c-1.98.74-4.86,1.5-8.64,2.31-3.78.8-6.4,1.4-7.85,1.78-1.45.37-2.84,1.12-4.16,2.22-1.32,1.11-1.98,2.65-1.98,4.63s.78,3.79,2.33,5.22c1.55,1.44,3.58,2.16,6.09,2.16,2.68,0,5.14-.58,7.4-1.76,2.26-1.17,3.92-2.68,4.98-4.52,1.22-2.05,1.83-5.42,1.83-10.11v-1.94Z"/>
      <path class="cls-2" d="M453.53,600.72v1.63c2.38-3.14,4.98-5.44,7.8-6.9,2.82-1.48,6.07-2.2,9.74-2.2s6.75.77,9.56,2.32,4.9,3.74,6.29,6.58c.89,1.65,1.47,3.43,1.73,5.35s.4,4.36.4,7.33v25.17c0,2.71-.62,4.76-1.86,6.14-1.23,1.38-2.85,2.07-4.83,2.07s-3.65-.7-4.9-2.12-1.88-3.45-1.88-6.09v-22.54c0-4.46-.62-7.87-1.86-10.23-1.24-2.37-3.7-3.55-7.4-3.55-2.41,0-4.61.72-6.59,2.16-1.98,1.43-3.43,3.4-4.36,5.91-.66,2.01-.99,5.78-.99,11.3v16.94c0,2.74-.63,4.79-1.9,6.17-1.27,1.37-2.92,2.05-4.93,2.05s-3.55-.7-4.8-2.12-1.88-3.45-1.88-6.09v-39.08c0-2.58.56-4.5,1.68-5.77,1.12-1.28,2.65-1.9,4.61-1.9,1.18,0,2.26.28,3.21.84s1.73,1.41,2.31,2.52c.58,1.12.86,2.5.86,4.12Z"/>
      <path class="cls-2" d="M546.06,630.54c0,3.73-.91,6.92-2.72,9.59-1.82,2.65-4.5,4.67-8.05,6.04-3.55,1.37-7.87,2.05-12.95,2.05s-9.02-.74-12.48-2.22c-3.46-1.49-6.02-3.35-7.67-5.57-1.65-2.23-2.48-4.47-2.48-6.72,0-1.49.53-2.75,1.59-3.81s2.39-1.59,4.01-1.59c1.41,0,2.5.34,3.27,1.03.75.69,1.48,1.67,2.17,2.93,1.39,2.41,3.05,4.21,4.98,5.39s4.56,1.78,7.9,1.78c2.71,0,4.93-.61,6.66-1.81,1.73-1.21,2.6-2.59,2.6-4.14,0-2.38-.9-4.11-2.7-5.2s-4.76-2.14-8.89-3.13c-4.66-1.16-8.44-2.37-11.37-3.63-2.92-1.28-5.26-2.95-7.01-5.03s-2.63-4.63-2.63-7.67c0-2.71.81-5.27,2.43-7.68s4-4.33,7.16-5.77c3.15-1.43,6.96-2.15,11.42-2.15,3.5,0,6.64.36,9.44,1.09,2.79.73,5.12,1.7,6.99,2.92s3.29,2.58,4.26,4.06,1.46,2.94,1.46,4.36c0,1.55-.52,2.82-1.56,3.81s-2.52,1.49-4.44,1.49c-1.39,0-2.57-.4-3.54-1.19s-2.09-1.98-3.34-3.57c-1.02-1.32-2.23-2.38-3.62-3.17s-3.27-1.19-5.65-1.19-4.48.53-6.09,1.56c-1.62,1.05-2.43,2.33-2.43,3.89,0,1.42.59,2.59,1.78,3.49,1.19.91,2.79,1.66,4.81,2.26s4.79,1.32,8.32,2.18c4.19,1.02,7.62,2.25,10.28,3.67,2.66,1.42,4.67,3.09,6.04,5.03,1.37,1.93,2.05,4.13,2.05,6.61Z"/>
      <path class="cls-2" d="M567.06,601.66l10.95,30.72,11.79-32.05c.92-2.58,1.83-4.4,2.72-5.47.89-1.08,2.25-1.61,4.06-1.61,1.72,0,3.18.57,4.39,1.73,1.2,1.16,1.81,2.49,1.81,4.01,0,.59-.11,1.29-.32,2.08-.22.79-.47,1.54-.74,2.23-.28.69-.61,1.49-.97,2.38l-12.97,32.19c-.37.92-.84,2.1-1.41,3.52s-1.22,2.63-1.93,3.63c-.71,1.01-1.59,1.79-2.63,2.36s-2.3.84-3.79.84c-1.92,0-3.44-.43-4.58-1.31-1.14-.87-1.98-1.83-2.53-2.87-.54-1.03-1.46-3.09-2.75-6.17l-12.88-31.85c-.3-.79-.61-1.59-.92-2.38s-.58-1.6-.79-2.42-.32-1.54-.32-2.14c0-.92.28-1.84.84-2.74.56-.91,1.34-1.65,2.33-2.23.99-.57,2.06-.86,3.22-.86,2.25,0,3.79.64,4.63,1.93s1.77,3.45,2.8,6.48Z"/>
      <path class="cls-2" d="M645.32,640.6c-3.26,2.54-6.43,4.45-9.48,5.71-3.06,1.28-6.48,1.9-10.28,1.9-3.47,0-6.51-.68-9.14-2.05-2.63-1.38-4.65-3.23-6.07-5.57s-2.13-4.89-2.13-7.63c0-3.7,1.17-6.86,3.52-9.47,2.34-2.6,5.56-4.35,9.66-5.24.86-.2,2.99-.65,6.39-1.34,3.4-.69,6.31-1.33,8.74-1.9,2.43-.58,5.06-1.28,7.9-2.1-.17-3.57-.88-6.19-2.15-7.85-1.27-1.67-3.9-2.51-7.9-2.51-3.43,0-6.02.48-7.75,1.44s-3.22,2.39-4.46,4.3-2.11,3.18-2.63,3.79c-.51.62-1.61.92-3.29.92-1.52,0-2.83-.5-3.94-1.46-1.11-.98-1.66-2.22-1.66-3.74,0-2.38.84-4.69,2.53-6.94s4.3-4.08,7.87-5.55c3.57-1.44,8.01-2.17,13.33-2.17,5.95,0,10.61.69,14.01,2.1,3.4,1.4,5.8,3.62,7.21,6.66,1.4,3.04,2.1,7.07,2.1,12.09,0,3.17-.01,5.86-.03,8.07s-.04,4.67-.07,7.38c0,2.54.42,5.2,1.26,7.95.84,2.76,1.27,4.54,1.27,5.33,0,1.39-.66,2.65-1.96,3.79-1.3,1.14-2.78,1.71-4.43,1.71-1.39,0-2.76-.65-4.11-1.95-1.35-1.31-2.79-3.19-4.31-5.67ZM644.43,621.02c-1.98.74-4.86,1.5-8.64,2.31-3.78.8-6.4,1.4-7.85,1.78-1.45.37-2.84,1.12-4.16,2.22-1.32,1.11-1.98,2.65-1.98,4.63s.78,3.79,2.33,5.22c1.55,1.44,3.58,2.16,6.09,2.16,2.68,0,5.14-.58,7.4-1.76,2.26-1.17,3.92-2.68,4.98-4.52,1.22-2.05,1.83-5.42,1.83-10.11v-1.94Z"/>
      <path class="cls-2" d="M684.84,628.71v11.3c0,2.74-.64,4.79-1.93,6.17-1.29,1.37-2.92,2.05-4.9,2.05s-3.55-.69-4.8-2.07c-1.26-1.39-1.88-3.43-1.88-6.14v-37.65c0-6.07,2.2-9.1,6.58-9.1,2.25,0,3.86.7,4.86,2.12.99,1.42,1.54,3.51,1.63,6.29,1.62-2.77,3.28-4.87,4.98-6.29,1.7-1.42,3.97-2.12,6.81-2.12s5.59.7,8.27,2.12c2.68,1.42,4.01,3.3,4.01,5.65,0,1.65-.56,3.02-1.71,4.08-1.13,1.08-2.37,1.61-3.69,1.61-.5,0-1.7-.3-3.59-.91-1.9-.61-3.57-.91-5.03-.91-1.98,0-3.6.52-4.86,1.56-1.26,1.03-2.23,2.58-2.92,4.62s-1.17,4.48-1.44,7.31c-.26,2.82-.4,6.26-.4,10.33Z"/>
      <path class="cls-2" d="M740.12,594.44h3.23v-4.06c0-4.23.54-7.59,1.61-10.08,1.07-2.49,2.88-4.3,5.45-5.45,2.55-1.13,6.07-1.71,10.52-1.71,7.89,0,11.84,1.93,11.84,5.79,0,1.26-.41,2.33-1.23,3.23s-1.81,1.33-2.93,1.33c-.53,0-1.43-.1-2.72-.3s-2.38-.3-3.27-.3c-2.44,0-4.01.72-4.7,2.16-.69,1.43-1.05,3.49-1.05,6.17v3.23h3.32c5.14,0,7.72,1.55,7.72,4.65,0,2.21-.68,3.62-2.05,4.22-1.38.59-3.27.89-5.67.89h-3.32v35.81c0,2.68-.64,4.71-1.9,6.11-1.28,1.41-2.92,2.1-4.93,2.1s-3.51-.69-4.78-2.1c-1.27-1.4-1.9-3.43-1.9-6.11v-35.81h-3.72c-2.01,0-3.57-.45-4.66-1.37-1.09-.9-1.63-2.09-1.63-3.55,0-3.24,2.26-4.84,6.78-4.84Z"/>
      <path class="cls-2" d="M788.41,628.71v11.3c0,2.74-.65,4.79-1.94,6.17-1.29,1.37-2.92,2.05-4.9,2.05s-3.56-.69-4.81-2.07c-1.26-1.39-1.88-3.43-1.88-6.14v-37.65c0-6.07,2.2-9.1,6.59-9.1,2.25,0,3.86.7,4.86,2.12s1.53,3.51,1.63,6.29c1.62-2.77,3.28-4.87,4.98-6.29,1.71-1.42,3.97-2.12,6.81-2.12s5.59.7,8.27,2.12c2.68,1.42,4.02,3.3,4.02,5.65,0,1.65-.57,3.02-1.72,4.08-1.13,1.08-2.37,1.61-3.69,1.61-.5,0-1.68-.3-3.59-.91-1.89-.61-3.58-.91-5.03-.91-1.98,0-3.6.52-4.84,1.56-1.27,1.03-2.23,2.58-2.93,4.62s-1.17,4.48-1.43,7.31c-.26,2.82-.4,6.26-.4,10.33Z"/>
      <path class="cls-2" d="M851.07,640.6c-3.27,2.54-6.43,4.45-9.49,5.71-3.05,1.28-6.48,1.9-10.27,1.9-3.47,0-6.52-.68-9.14-2.05-2.63-1.38-4.66-3.23-6.08-5.57s-2.12-4.89-2.12-7.63c0-3.7,1.17-6.86,3.51-9.47,2.34-2.6,5.57-4.35,9.67-5.24.86-.2,2.98-.65,6.39-1.34,3.4-.69,6.32-1.33,8.74-1.9,2.43-.58,5.06-1.28,7.9-2.1-.17-3.57-.89-6.19-2.16-7.85-1.27-1.67-3.91-2.51-7.9-2.51-3.43,0-6.01.48-7.75,1.44-1.73.96-3.21,2.39-4.46,4.3-1.23,1.92-2.11,3.18-2.62,3.79-.52.62-1.61.92-3.29.92-1.52,0-2.83-.5-3.94-1.46-1.1-.98-1.66-2.22-1.66-3.74,0-2.38.85-4.69,2.53-6.94s4.3-4.08,7.87-5.55c3.57-1.44,8-2.17,13.32-2.17,5.95,0,10.62.69,14.03,2.1,3.4,1.4,5.8,3.62,7.2,6.66,1.41,3.04,2.1,7.07,2.1,12.09,0,3.17,0,5.86-.02,8.07-.01,2.21-.04,4.67-.08,7.38,0,2.54.43,5.2,1.27,7.95.85,2.76,1.27,4.54,1.27,5.33,0,1.39-.65,2.65-1.96,3.79-1.3,1.14-2.79,1.71-4.43,1.71-1.39,0-2.76-.65-4.12-1.95-1.35-1.31-2.79-3.19-4.3-5.67ZM850.18,621.02c-1.98.74-4.87,1.5-8.64,2.31-3.79.8-6.41,1.4-7.85,1.78-1.45.37-2.84,1.12-4.16,2.22-1.32,1.11-1.98,2.65-1.98,4.63s.77,3.79,2.32,5.22c1.55,1.44,3.59,2.16,6.1,2.16,2.66,0,5.14-.58,7.4-1.76,2.27-1.17,3.92-2.68,4.98-4.52,1.22-2.05,1.84-5.42,1.84-10.11v-1.94Z"/>
      <path class="cls-2" d="M946.07,630.54c0,3.73-.9,6.92-2.72,9.59-1.82,2.65-4.5,4.67-8.06,6.04-3.55,1.37-7.86,2.05-12.95,2.05s-9.02-.74-12.48-2.22-6.02-3.35-7.67-5.57c-1.65-2.23-2.48-4.47-2.48-6.72,0-1.49.53-2.75,1.59-3.81s2.39-1.59,4.01-1.59c1.42,0,2.51.34,3.27,1.03s1.49,1.67,2.18,2.93c1.39,2.41,3.05,4.21,4.98,5.39,1.94,1.19,4.57,1.78,7.9,1.78,2.71,0,4.93-.61,6.66-1.81,1.74-1.21,2.6-2.59,2.6-4.14,0-2.38-.89-4.11-2.7-5.2-1.79-1.09-4.77-2.14-8.88-3.13-4.66-1.16-8.46-2.37-11.37-3.63-2.92-1.28-5.26-2.95-7.01-5.03s-2.62-4.63-2.62-7.67c0-2.71.8-5.27,2.42-7.68s4.01-4.33,7.16-5.77c3.16-1.43,6.97-2.15,11.43-2.15,3.49,0,6.64.36,9.44,1.09,2.79.73,5.11,1.7,6.98,2.92,1.86,1.22,3.28,2.58,4.26,4.06.97,1.49,1.46,2.94,1.46,4.36,0,1.55-.53,2.82-1.56,3.81-1.05.99-2.52,1.49-4.44,1.49-1.39,0-2.57-.4-3.53-1.19-.98-.79-2.09-1.98-3.35-3.57-1.02-1.32-2.23-2.38-3.62-3.17s-3.27-1.19-5.64-1.19-4.48.53-6.1,1.56c-1.62,1.05-2.42,2.33-2.42,3.89,0,1.42.59,2.59,1.78,3.49,1.19.91,2.79,1.66,4.8,2.26s4.79,1.32,8.32,2.18c4.19,1.02,7.62,2.25,10.27,3.67,2.66,1.42,4.68,3.09,6.04,5.03,1.38,1.93,2.06,4.13,2.06,6.61Z"/>
      <path class="cls-2" d="M958.26,594.44h1.49v-8.12c0-2.18.06-3.9.18-5.13.11-1.23.43-2.3.96-3.19.53-.92,1.29-1.67,2.28-2.26.99-.57,2.1-.87,3.32-.87,1.72,0,3.27.65,4.66,1.94.92.86,1.51,1.9,1.75,3.15.25,1.23.37,2.99.37,5.27v9.21h4.95c1.92,0,3.38.45,4.38,1.35,1.01.91,1.51,2.07,1.51,3.49,0,1.82-.72,3.09-2.15,3.82-1.44.73-3.5,1.09-6.17,1.09h-2.53v24.86c0,2.11.08,3.74.22,4.88.15,1.14.55,2.07,1.19,2.77.65.72,1.7,1.07,3.15,1.07.79,0,1.86-.14,3.21-.42,1.35-.29,2.41-.42,3.17-.42,1.09,0,2.08.43,2.95,1.31.87.87,1.31,1.96,1.31,3.25,0,2.18-1.19,3.84-3.57,5s-5.79,1.73-10.25,1.73c-4.23,0-7.43-.7-9.61-2.12-2.18-1.42-3.61-3.38-4.28-5.89s-1.01-5.87-1.01-10.06v-25.95h-1.78c-1.95,0-3.43-.46-4.46-1.39s-1.54-2.1-1.54-3.52.54-2.58,1.62-3.49c1.07-.9,2.63-1.35,4.68-1.35Z"/>
      <path class="cls-2" d="M1027.6,640.6c-3.27,2.54-6.43,4.45-9.49,5.71-3.05,1.28-6.48,1.9-10.27,1.9-3.47,0-6.52-.68-9.14-2.05-2.63-1.38-4.66-3.23-6.08-5.57s-2.12-4.89-2.12-7.63c0-3.7,1.17-6.86,3.51-9.47,2.34-2.6,5.57-4.35,9.67-5.24.86-.2,2.98-.65,6.39-1.34,3.4-.69,6.32-1.33,8.74-1.9,2.43-.58,5.06-1.28,7.9-2.1-.17-3.57-.89-6.19-2.16-7.85-1.27-1.67-3.91-2.51-7.9-2.51-3.43,0-6.01.48-7.75,1.44-1.73.96-3.21,2.39-4.46,4.3-1.23,1.92-2.11,3.18-2.62,3.79-.52.62-1.61.92-3.29.92-1.52,0-2.83-.5-3.94-1.46-1.1-.98-1.66-2.22-1.66-3.74,0-2.38.85-4.69,2.53-6.94s4.3-4.08,7.87-5.55c3.57-1.44,8-2.17,13.32-2.17,5.95,0,10.62.69,14.03,2.1,3.4,1.4,5.8,3.62,7.2,6.66,1.41,3.04,2.1,7.07,2.1,12.09,0,3.17,0,5.86-.02,8.07-.01,2.21-.04,4.67-.08,7.38,0,2.54.43,5.2,1.27,7.95.85,2.76,1.27,4.54,1.27,5.33,0,1.39-.65,2.65-1.96,3.79-1.3,1.14-2.79,1.71-4.43,1.71-1.39,0-2.76-.65-4.12-1.95-1.35-1.31-2.79-3.19-4.3-5.67ZM1026.71,621.02c-1.98.74-4.87,1.5-8.64,2.31-3.79.8-6.41,1.4-7.85,1.78-1.45.37-2.84,1.12-4.16,2.22-1.32,1.11-1.98,2.65-1.98,4.63s.77,3.79,2.32,5.22c1.55,1.44,3.59,2.16,6.1,2.16,2.66,0,5.14-.58,7.4-1.76,2.27-1.17,3.92-2.68,4.98-4.52,1.22-2.05,1.84-5.42,1.84-10.11v-1.94Z"/>
      <path class="cls-2" d="M1067.13,628.71v11.3c0,2.74-.65,4.79-1.94,6.17-1.29,1.37-2.92,2.05-4.9,2.05s-3.56-.69-4.81-2.07c-1.26-1.39-1.88-3.43-1.88-6.14v-37.65c0-6.07,2.2-9.1,6.59-9.1,2.25,0,3.86.7,4.86,2.12s1.53,3.51,1.63,6.29c1.62-2.77,3.28-4.87,4.98-6.29,1.71-1.42,3.97-2.12,6.81-2.12s5.59.7,8.27,2.12,4.02,3.3,4.02,5.65c0,1.65-.57,3.02-1.72,4.08-1.13,1.08-2.37,1.61-3.69,1.61-.5,0-1.68-.3-3.59-.91-1.89-.61-3.58-.91-5.03-.91-1.98,0-3.6.52-4.84,1.56-1.27,1.03-2.23,2.58-2.93,4.62s-1.17,4.48-1.43,7.31c-.26,2.82-.4,6.26-.4,10.33Z"/>
      <path class="cls-2" d="M1100.11,594.44h1.49v-8.12c0-2.18.06-3.9.18-5.13.11-1.23.43-2.3.96-3.19.53-.92,1.29-1.67,2.28-2.26.99-.57,2.1-.87,3.32-.87,1.72,0,3.27.65,4.66,1.94.92.86,1.51,1.9,1.75,3.15.25,1.23.37,2.99.37,5.27v9.21h4.95c1.92,0,3.38.45,4.38,1.35,1.01.91,1.51,2.07,1.51,3.49,0,1.82-.72,3.09-2.15,3.82-1.44.73-3.5,1.09-6.17,1.09h-2.53v24.86c0,2.11.08,3.74.22,4.88.15,1.14.55,2.07,1.19,2.77.65.72,1.7,1.07,3.15,1.07.79,0,1.86-.14,3.21-.42,1.35-.29,2.41-.42,3.17-.42,1.09,0,2.08.43,2.95,1.31.87.87,1.31,1.96,1.31,3.25,0,2.18-1.19,3.84-3.57,5s-5.79,1.73-10.25,1.73c-4.23,0-7.43-.7-9.61-2.12-2.18-1.42-3.61-3.38-4.28-5.89s-1.01-5.87-1.01-10.06v-25.95h-1.78c-1.95,0-3.43-.46-4.46-1.39s-1.54-2.1-1.54-3.52.54-2.58,1.62-3.49c1.07-.9,2.63-1.35,4.68-1.35Z"/>
      <path class="cls-2" d="M1161.39,594.44h1.49v-8.12c0-2.18.06-3.9.18-5.13.11-1.23.43-2.3.96-3.19.53-.92,1.29-1.67,2.28-2.26.99-.57,2.1-.87,3.32-.87,1.72,0,3.27.65,4.66,1.94.92.86,1.51,1.9,1.75,3.15.25,1.23.37,2.99.37,5.27v9.21h4.95c1.92,0,3.38.45,4.38,1.35,1.01.91,1.51,2.07,1.51,3.49,0,1.82-.72,3.09-2.15,3.82-1.44.73-3.5,1.09-6.17,1.09h-2.53v24.86c0,2.11.08,3.74.22,4.88.15,1.14.55,2.07,1.19,2.77.65.72,1.7,1.07,3.15,1.07.79,0,1.86-.14,3.21-.42,1.35-.29,2.41-.42,3.17-.42,1.09,0,2.08.43,2.95,1.31.87.87,1.31,1.96,1.31,3.25,0,2.18-1.19,3.84-3.57,5s-5.79,1.73-10.25,1.73c-4.23,0-7.43-.7-9.61-2.12-2.18-1.42-3.61-3.38-4.28-5.89s-1.01-5.87-1.01-10.06v-25.95h-1.78c-1.95,0-3.43-.46-4.46-1.39s-1.54-2.1-1.54-3.52.54-2.58,1.62-3.49c1.07-.9,2.63-1.35,4.68-1.35Z"/>
      <path class="cls-2" d="M1203.39,586.95c-1.88,0-3.49-.57-4.82-1.73-1.34-1.16-2.01-2.8-2.01-4.91,0-1.92.69-3.49,2.06-4.72,1.38-1.24,2.96-1.86,4.78-1.86s3.3.56,4.66,1.68,2.04,2.75,2.04,4.9-.66,3.71-1.98,4.88c-1.32,1.18-2.9,1.76-4.71,1.76ZM1210.08,600.92v39.08c0,2.71-.65,4.76-1.94,6.14-1.29,1.38-2.92,2.07-4.9,2.07s-3.59-.7-4.83-2.12c-1.23-1.42-1.86-3.45-1.86-6.09v-38.69c0-2.68.63-4.69,1.86-6.04,1.24-1.35,2.85-2.03,4.83-2.03s3.61.67,4.9,2.03,1.94,3.24,1.94,5.65Z"/>
      <path class="cls-2" d="M1224.04,640.01v-58.65c0-2.71.61-4.76,1.82-6.14,1.2-1.39,2.83-2.08,4.88-2.08s3.7.68,4.95,2.06c1.26,1.37,1.88,3.42,1.88,6.17v58.65c0,2.74-.64,4.79-1.92,6.17-1.27,1.37-2.91,2.05-4.92,2.05s-3.59-.7-4.83-2.12c-1.23-1.42-1.86-3.45-1.86-6.09Z"/>
      <path class="cls-2" d="M1310.58,642.03l-11.95-19.62-7.32,6.94v10.76c0,2.61-.69,4.61-2.06,6.01-1.38,1.41-2.95,2.1-4.73,2.1-2.08,0-3.71-.69-4.9-2.07-1.19-1.39-1.78-3.43-1.78-6.14v-57.66c0-3.01.57-5.3,1.73-6.86,1.16-1.57,2.81-2.36,4.95-2.36s3.73.7,4.95,2.12,1.84,3.52,1.84,6.3v32.79l15.2-15.95c1.88-1.98,3.31-3.32,4.3-4.05s2.2-1.09,3.62-1.09c1.68,0,3.08.53,4.21,1.61,1.12,1.07,1.68,2.41,1.68,4.03,0,1.98-1.83,4.62-5.49,7.93l-7.19,6.59,13.87,21.79c1.02,1.62,1.76,2.85,2.2,3.69.45.85.67,1.65.67,2.41,0,2.15-.58,3.83-1.76,5.08-1.17,1.23-2.72,1.85-4.62,1.85-1.65,0-2.93-.44-3.82-1.33-.89-.89-2.09-2.51-3.61-4.86Z"/>
      <path class="cls-2" d="M1332.51,640.01v-58.65c0-2.71.61-4.76,1.82-6.14,1.2-1.39,2.83-2.08,4.88-2.08s3.7.68,4.95,2.06c1.26,1.37,1.88,3.42,1.88,6.17v58.65c0,2.74-.64,4.79-1.92,6.17-1.27,1.37-2.91,2.05-4.92,2.05s-3.59-.7-4.83-2.12c-1.23-1.42-1.86-3.45-1.86-6.09Z"/>
      <path class="cls-2" d="M1366.84,586.95c-1.88,0-3.49-.57-4.82-1.73-1.34-1.16-2.01-2.8-2.01-4.91,0-1.92.69-3.49,2.06-4.72,1.38-1.24,2.96-1.86,4.78-1.86s3.3.56,4.66,1.68,2.04,2.75,2.04,4.9-.66,3.71-1.98,4.88c-1.32,1.18-2.9,1.76-4.71,1.76ZM1373.53,600.92v39.08c0,2.71-.65,4.76-1.94,6.14-1.29,1.38-2.92,2.07-4.9,2.07s-3.59-.7-4.83-2.12c-1.23-1.42-1.86-3.45-1.86-6.09v-38.69c0-2.68.63-4.69,1.86-6.04,1.24-1.35,2.85-2.03,4.83-2.03s3.61.67,4.9,2.03,1.94,3.24,1.94,5.65Z"/>
      <path class="cls-2" d="M1421.18,642.03l-11.95-19.62-7.32,6.94v10.76c0,2.61-.69,4.61-2.06,6.01-1.38,1.41-2.95,2.1-4.73,2.1-2.08,0-3.71-.69-4.9-2.07-1.19-1.39-1.78-3.43-1.78-6.14v-57.66c0-3.01.57-5.3,1.73-6.86,1.16-1.57,2.81-2.36,4.95-2.36s3.73.7,4.95,2.12,1.84,3.52,1.84,6.3v32.79l15.2-15.95c1.88-1.98,3.31-3.32,4.3-4.05s2.2-1.09,3.62-1.09c1.68,0,3.08.53,4.21,1.61,1.12,1.07,1.68,2.41,1.68,4.03,0,1.98-1.83,4.62-5.49,7.93l-7.19,6.59,13.87,21.79c1.02,1.62,1.76,2.85,2.2,3.69.45.85.67,1.65.67,2.41,0,2.15-.58,3.83-1.76,5.08-1.17,1.23-2.72,1.85-4.62,1.85-1.65,0-2.93-.44-3.82-1.33s-2.09-2.51-3.61-4.86Z"/>
    </g>
  </g>
</svg>