<svg width="199" height="199" viewBox="0 0 199 199" fill="none" xmlns="http://www.w3.org/2000/svg">
<g clip-path="url(#clip0_371_99)">
<path d="M139.443 20H59.5568C50.4127 20 43 27.4041 43 36.5375V163.463C43 172.596 50.4127 180 59.5568 180H139.443C148.587 180 156 172.596 156 163.463V36.5375C156 27.4041 148.587 20 139.443 20Z" fill="#660099"/>
<path d="M144.41 44.8062H56.6592V67.1317H144.41V44.8062Z" fill="white"/>
<path d="M83.978 78.708H59.9707V94.4186H83.978V78.708Z" fill="white"/>
<path d="M110.882 78.708H86.875V94.4186H110.882V78.708Z" fill="white"/>
<path d="M137.788 78.708H113.78V94.4186H137.788V78.708Z" fill="white"/>
<path d="M83.978 97.3125H59.9707V113.023H83.978V97.3125Z" fill="white"/>
<path d="M110.882 97.3125H86.875V113.023H110.882V97.3125Z" fill="white"/>
<path d="M137.788 97.3125H113.78V113.023H137.788V97.3125Z" fill="white"/>
<path d="M83.978 115.504H59.9707V131.215H83.978V115.504Z" fill="white"/>
<path d="M110.882 115.504H86.875V131.215H110.882V115.504Z" fill="white"/>
<path d="M137.788 115.504H113.78V131.215H137.788V115.504Z" fill="white"/>
<path d="M120.403 133.695H59.9707V151.06H120.403V133.695Z" fill="white"/>
</g>
<defs>
<clipPath id="clip0_371_99">
<rect width="113" height="160" fill="white" transform="translate(43 20)"/>
</clipPath>
</defs>
</svg>
