<svg width="127" height="137" viewBox="0 0 127 137" fill="none" xmlns="http://www.w3.org/2000/svg">
<g clip-path="url(#clip0_371_106)">
<path d="M64.3848 137H96.577L85.9642 96.5389L74.9976 84.8264V60.6917L107.544 40.1062V0H66.1536L64.3848 137Z" fill="#660099"/>
<path d="M64.3844 137H32.1922L42.805 96.5389L53.7715 84.8264V60.6917L21.2256 40.1062V0H66.1532L64.3844 137Z" fill="#660099"/>
<path d="M105.067 6.38852H121.693L121.34 21.2953L105.42 33.7175V38.3315L127 21.2953L126.292 2.48438H104.713L105.067 6.38852Z" fill="#660099"/>
<path d="M21.9331 6.38852H5.30641L5.66017 21.2953L21.5794 33.7175V38.3315L0 21.2953L0.707521 2.48438H22.2869L21.9331 6.38852Z" fill="#660099"/>
</g>
<defs>
<clipPath id="clip0_371_106">
<rect width="127" height="137" fill="white"/>
</clipPath>
</defs>
</svg>
