<svg width="199" height="199" viewBox="0 0 199 199" fill="none" xmlns="http://www.w3.org/2000/svg">
<g clip-path="url(#clip0_371_99)">
<path d="M153 26H47V174H153V26Z" fill="#660099"/>
<path d="M61.8549 48.0402C64.462 47.1034 67.1578 46.1266 69.9509 45.9995C71.3804 45.9345 72.7688 46.1214 74.1219 46.5915C75.3569 47.0204 76.5263 47.6141 77.7422 48.0924C82.672 50.0326 87.7832 48.5985 92.8017 47.8875C95.3237 47.53 97.8949 47.4156 100.373 48.0959C102.971 48.8086 105.359 50.1197 107.957 50.8284C110.6 51.5492 113.371 51.6856 116.077 51.2892C117.375 51.0988 118.649 50.7761 119.88 50.3228C121.204 49.8353 122.485 49.2172 123.856 48.8637C126.884 48.0837 129.986 49.075 133.035 49.1499C135.572 49.212 138.254 48.6728 140.072 46.7726C140.846 45.9635 139.619 44.7302 138.843 45.5416C137.261 47.1963 134.889 47.4952 132.708 47.3982C129.983 47.2769 127.3 46.5747 124.564 46.9589C121.894 47.3338 119.533 48.8092 116.904 49.3785C114.244 49.9549 111.44 49.9096 108.8 49.2497C106.224 48.606 103.867 47.3356 101.334 46.5619C98.8744 45.8109 96.3315 45.7377 93.7904 46.0215C88.9144 46.5665 83.7789 48.3396 78.9394 46.6855C77.5371 46.2061 76.2217 45.5091 74.8303 45.0006C73.439 44.4922 71.9637 44.2339 70.4785 44.245C67.3379 44.2676 64.3161 45.3117 61.3938 46.3617C60.3489 46.7372 60.7995 48.4203 61.8561 48.0407L61.8549 48.0402Z" fill="white"/>
<path d="M61.9868 60.5932C64.2203 59.6419 66.7434 59.8625 69.0835 60.2014C71.4839 60.5491 73.901 61.061 76.3385 60.9507C77.5902 60.8939 78.8072 60.6582 79.9871 60.238C81.1814 59.8126 82.3706 59.2287 83.6391 59.0598C86.2613 58.7098 88.6889 60.3541 91.0093 61.3123C96.179 63.4464 101.798 62.3483 107.211 62.6849C110.187 62.8701 113.106 63.5172 116.05 63.9554C118.59 64.3333 121.116 64.5045 123.68 64.3431C129.056 64.0042 134.467 62.9334 139.619 61.3733C140.686 61.05 140.232 59.3686 139.156 59.6942C134.531 61.0953 129.713 62.0802 124.898 62.5091C122.382 62.7331 119.888 62.7209 117.38 62.3982C114.486 62.0262 111.634 61.3878 108.731 61.0749C103.214 60.48 97.3577 61.8498 92.0404 59.8584C89.6516 58.9635 87.4638 57.491 84.8584 57.2943C82.1777 57.0917 79.9297 58.7679 77.3475 59.1248C71.876 59.8805 66.4625 56.8108 61.1098 59.0906C60.6748 59.2757 60.5873 59.9107 60.7982 60.2815C61.0542 60.7319 61.5575 60.776 61.9868 60.5932Z" fill="white"/>
<path d="M61.3945 73.4754C66.5584 72.0946 71.7495 74.4359 76.7738 75.3907C79.4817 75.9049 82.116 75.9832 84.8274 75.4493C86.2645 75.1666 87.6819 74.7836 89.1294 74.5537C90.5068 74.3343 91.9109 74.3135 93.3005 74.3999C98.9451 74.7505 104.452 76.8161 110.144 75.7476C112.923 75.2258 115.579 74.0337 118.406 73.7661C119.828 73.6315 121.157 73.8027 122.508 74.2589C123.683 74.6559 124.827 75.1092 126.076 75.209C128.325 75.3883 130.663 74.7952 132.854 74.3669C134.968 73.9536 137.218 73.3622 139.388 73.5932C140.499 73.7116 140.49 71.9693 139.388 71.852C137.471 71.6477 135.471 72.0958 133.597 72.4539C131.52 72.8509 129.428 73.3622 127.309 73.4736C124.833 73.6036 122.709 72.1985 120.271 72.0018C117.465 71.7754 114.73 72.7603 112.068 73.4968C109.253 74.2757 106.525 74.4771 103.622 74.1498C100.767 73.8277 97.9604 73.1689 95.1071 72.8265C92.2005 72.4771 89.4324 72.657 86.5779 73.2896C85.1843 73.5984 83.7883 73.9525 82.3616 74.0674C81.0103 74.1759 79.6444 74.0987 78.3053 73.8967C72.5436 73.0279 66.8306 70.2199 60.9323 71.7975C59.8526 72.0859 60.3107 73.7661 61.3945 73.4765V73.4754Z" fill="white"/>
<path d="M61.5282 85.7547C66.4517 84.5232 71.5281 85.345 76.4412 86.2016C81.3838 87.0635 86.4063 87.9956 91.4265 87.2458C94.1009 86.8465 96.6507 85.8853 99.3157 85.4431C101.926 85.0101 104.458 85.4471 106.98 86.1442C109.436 86.8238 111.853 87.6631 114.39 87.9985C117.039 88.3491 119.668 87.9776 122.231 87.2771C127.798 85.7542 133.782 82.5237 139.598 84.8104C140.64 85.2196 141.091 83.5371 140.06 83.1314C134.938 81.1174 129.507 83.1064 124.583 84.7333C121.977 85.594 119.295 86.4071 116.527 86.4088C113.905 86.4106 111.384 85.6154 108.893 84.8824C106.474 84.1709 103.994 83.4837 101.451 83.5109C98.6948 83.5405 96.0604 84.4233 93.4093 85.0716C88.3172 86.3171 83.2286 85.6236 78.1389 84.7379C72.5064 83.7582 66.7262 82.6595 61.0671 84.0757C59.9828 84.3467 60.4421 86.0264 61.5293 85.7547H61.5282Z" fill="white"/>
<path d="M61.3423 94.3079C64.0219 94.027 66.5155 95.0659 68.9726 95.9934C71.5525 96.9673 74.1173 97.6051 76.8907 97.6063C82.4931 97.6092 87.9668 95.6898 93.5872 96.1814C99.0024 96.655 103.867 99.5088 109.218 100.317C114.114 101.056 119.049 99.824 123.811 98.7868C128.936 97.6707 134.576 96.2818 139.737 97.9371C140.804 98.2795 141.261 96.5987 140.199 96.258C135.595 94.7815 130.608 95.6034 125.985 96.5471C121.212 97.5216 116.33 99.0091 111.413 98.7996C105.978 98.5686 101.082 95.72 95.7941 94.7432C90.1465 93.7003 84.6687 95.3486 79.0582 95.7775C77.5354 95.8941 75.9935 95.9156 74.4753 95.7252C72.9386 95.5326 71.4644 95.0659 70.0164 94.532C67.2221 93.5018 64.392 92.2475 61.3429 92.5667C60.2418 92.6822 60.2296 94.4246 61.3423 94.3079Z" fill="white"/>
<path d="M62.1182 108.965C66.9687 109.655 71.6066 107.776 76.3783 107.376C81.7982 106.922 87.1718 108.128 92.521 108.804C95.1757 109.139 97.861 109.358 100.536 109.17C103.354 108.971 105.943 108.198 108.596 107.27C111.149 106.377 113.631 105.858 116.344 105.979C118.853 106.091 121.321 106.602 123.769 107.133C129.081 108.286 134.761 109.707 140.047 107.671C141.08 107.273 140.631 105.589 139.584 105.992C134.963 107.772 130.042 106.723 125.375 105.704C120.528 104.646 115.492 103.512 110.575 104.817C107.849 105.541 105.294 106.752 102.493 107.209C99.8993 107.631 97.2354 107.546 94.6295 107.299C89.3184 106.795 84.0735 105.525 78.7179 105.539C75.919 105.546 73.2568 106.115 70.5229 106.631C67.9632 107.115 65.1893 107.658 62.5798 107.287C62.1118 107.22 61.6524 107.403 61.5111 107.895C61.3947 108.303 61.6542 108.9 62.1182 108.966V108.965Z" fill="white"/>
<path d="M62.513 117.956C69.5154 118.602 76.7043 119.235 83.6122 117.521C85.2828 117.107 86.9 116.524 88.5276 115.97C89.3397 115.693 90.1553 115.425 90.9818 115.195C91.6149 115.018 92.284 114.774 92.9495 114.889C93.9846 115.068 94.8998 115.805 95.7171 116.418C96.6502 117.118 97.5654 117.876 98.6347 118.36C100.974 119.421 103.136 118.421 105.233 117.278C106.327 116.681 107.422 116.001 108.631 115.663C109.506 115.419 110.208 115.566 111.044 115.844C113.115 116.53 115.154 117.309 117.214 118.027C118.971 118.639 120.819 119.403 122.696 119.519C125.437 119.688 128.237 118.721 130.832 117.965C133.366 117.228 136.131 116.226 138.809 116.541C139.918 116.672 139.909 114.929 138.809 114.8C136.455 114.523 134.01 115.248 131.768 115.883C129.311 116.579 126.825 117.479 124.272 117.734C122.342 117.928 120.662 117.362 118.855 116.753C116.713 116.032 114.597 115.238 112.465 114.493C111.674 114.217 110.858 113.876 110.02 113.791C108.892 113.676 107.793 114.058 106.779 114.511C105.588 115.043 104.481 115.741 103.315 116.323C102.415 116.772 101.358 117.257 100.325 117.097C99.2302 116.928 98.2657 116.171 97.4032 115.527C96.4805 114.837 95.5798 114.081 94.5256 113.597C93.4002 113.081 92.3651 113.044 91.1736 113.342C89.4631 113.769 87.8094 114.388 86.1406 114.95C82.3646 116.221 78.4988 116.805 74.52 116.874C70.5076 116.944 66.504 116.582 62.513 116.213C61.3997 116.111 61.4067 117.852 62.513 117.954V117.956Z" fill="white"/>
<path d="M61.6055 129.341C64.6106 129.754 67.4199 128.836 70.3027 128.12C72.9944 127.45 75.7267 127.287 78.4902 127.439C84.074 127.748 89.5432 129.16 95.1392 129.326C97.9409 129.409 100.761 129.147 103.451 128.33C106.083 127.531 108.599 126.366 111.37 126.126C116.092 125.716 120.833 126.839 125.456 127.637C130.428 128.495 135.921 129.414 140.777 127.539C141.81 127.14 141.361 125.456 140.315 125.86C136.089 127.492 131.357 126.858 127.006 126.142C122.327 125.371 117.608 124.227 112.839 124.31C110.299 124.355 107.936 124.944 105.547 125.784C102.851 126.733 100.221 127.465 97.3489 127.579C91.8398 127.796 86.424 126.474 80.974 125.902C77.8976 125.579 74.7935 125.506 71.7346 126.035C68.5494 126.586 65.3566 128.116 62.0671 127.663C61.5985 127.598 61.1398 127.777 60.9985 128.271C60.882 128.677 61.1409 129.278 61.6055 129.342V129.341Z" fill="white"/>
<path d="M61.9218 138.135C67.0857 136.754 72.2768 139.096 77.3011 140.05C80.009 140.565 82.6434 140.643 85.3548 140.109C86.7919 139.826 88.2093 139.443 89.6568 139.213C91.0342 138.994 92.4383 138.973 93.8278 139.06C99.4725 139.41 104.979 141.476 110.671 140.407C113.451 139.885 116.106 138.693 118.934 138.426C120.355 138.291 121.684 138.462 123.035 138.919C124.21 139.316 125.354 139.769 126.604 139.869C128.852 140.048 131.191 139.455 133.381 139.027C135.496 138.613 137.745 138.022 139.915 138.253C141.026 138.371 141.018 136.629 139.915 136.512C137.998 136.307 135.998 136.755 134.125 137.114C132.047 137.511 129.955 138.022 127.836 138.133C125.361 138.263 123.236 136.858 120.798 136.661C117.992 136.435 115.257 137.42 112.595 138.157C109.78 138.935 107.052 139.137 104.15 138.809C101.294 138.487 98.4878 137.829 95.6345 137.486C92.7279 137.137 89.9597 137.317 87.1052 137.949C85.7116 138.258 84.3156 138.612 82.889 138.727C81.5376 138.836 80.1718 138.758 78.8326 138.556C73.071 137.688 67.358 134.88 61.4596 136.457C60.3799 136.746 60.8381 138.426 61.9218 138.136V138.135Z" fill="white"/>
<path d="M61.479 147.428C64.1586 147.147 66.6522 148.186 69.1093 149.114C71.6892 150.087 74.2541 150.725 77.0274 150.726C82.6298 150.729 88.1036 148.81 93.7239 149.302C99.1392 149.775 104.004 152.629 109.355 153.437C114.25 154.176 119.185 152.944 123.948 151.907C129.073 150.791 134.713 149.402 139.873 151.057C140.941 151.4 141.398 149.719 140.336 149.378C135.732 147.902 130.745 148.723 126.122 149.667C121.349 150.642 116.467 152.129 111.549 151.92C106.115 151.689 101.219 148.84 95.9308 147.863C90.2832 146.82 84.8054 148.469 79.1949 148.898C77.6721 149.014 76.1302 149.036 74.612 148.845C73.0753 148.653 71.6012 148.186 70.1531 147.652C67.3588 146.622 64.5287 145.368 61.4796 145.687C60.3785 145.802 60.3663 147.545 61.479 147.428Z" fill="white"/>
</g>
<defs>
<clipPath id="clip0_371_99">
<rect width="106" height="148" fill="white" transform="translate(47 26)"/>
</clipPath>
</defs>
</svg>
