<?xml version="1.0" encoding="UTF-8"?>
<svg id="Lag_1" xmlns="http://www.w3.org/2000/svg" version="1.1" viewBox="100 90 500 250">
  <!-- Generator: Adobe Illustrator 29.4.0, SVG Export Plug-In . SVG Version: 2.1.0 Build 152)  -->
  <defs>
    <style>
      .st0 {
        opacity: .8;
      }

      .st0, .st1, .st2 {
        stroke-miterlimit: 10;
      }

      .st0, .st2 {
        fill: #662d91;
        stroke: #662d91;
      }

      .st1 {
        fill: #fff;
        stroke: #fff;
      }
    </style>
  </defs>
  <path class="st0" d="M489.34,276.62c.02,1.69-1.34,3.07-3.03,3.07h-18.91c-1.68,0-3.04-1.36-3.04-3.03v-28.94c0-1.67-1.35-3.03-3.03-3.03-.83,0-1.57.33-2.12.87-.55.53-.89,1.28-.91,2.1-.19,9.52-.38,19.04-.57,28.56-.03,1.65-1.38,2.97-3.03,2.97h-62.44c-1.68,0-3.04-1.36-3.03-3.04.02-9.47.05-18.94.08-28.42.01-1.68-1.35-3.04-3.03-3.04h-.93c-1.68,0-3.03,1.36-3.03,3.03v28.94c0,1.67-1.36,3.03-3.03,3.03h-17.99c-1.66,0-3.01-1.33-3.03-2.99-.31-24.98-.62-49.96-.93-74.94-.02-1.69,1.34-3.07,3.03-3.07h47.35c-10.25-5.47-17.22-16.26-17.22-28.69,0-17.95,14.55-32.5,32.5-32.5s32.5,14.55,32.5,32.5c0,12.43-6.97,23.22-17.22,28.69h47.1c1.66,0,3.01,1.34,3.03,3,.31,24.97.62,49.95.93,74.93Z"/>
  <path class="st1" d="M420.13,221.84c4.64-.17,9.29-.33,13.93-.5l-8.8,17.48h8.8c-6.98,10.34-13.95,20.68-20.93,31.02,2.9-7.84,5.81-15.68,8.71-23.52h-9.21c2.5-8.16,5-16.32,7.5-24.48Z"/>
  <path class="st0" d="M339.34,276.62c.02,1.69-1.34,3.07-3.03,3.07h-18.91c-1.68,0-3.04-1.36-3.04-3.03v-28.94c0-1.67-1.35-3.03-3.03-3.03-.83,0-1.57.33-2.12.87-.55.53-.89,1.28-.91,2.1-.19,9.52-.38,19.04-.57,28.56-.03,1.65-1.38,2.97-3.03,2.97h-62.44c-1.68,0-3.04-1.36-3.03-3.04.02-9.47.05-18.94.08-28.42.01-1.68-1.35-3.04-3.03-3.04h-.93c-1.68,0-3.03,1.36-3.03,3.03v28.94c0,1.67-1.36,3.03-3.03,3.03h-17.99c-1.66,0-3.01-1.33-3.03-2.99-.31-24.98-.62-49.96-.93-74.94-.02-1.69,1.34-3.07,3.03-3.07h47.35c-10.25-5.47-17.22-16.26-17.22-28.69,0-17.95,14.55-32.5,32.5-32.5s32.5,14.55,32.5,32.5c0,12.43-6.97,23.22-17.22,28.69h47.1c1.66,0,3.01,1.34,3.03,3,.31,24.97.62,49.95.93,74.93Z"/>
  <path class="st1" d="M272.13,221.84c4.64-.17,9.29-.33,13.93-.5l-8.8,17.48h8.8c-6.98,10.34-13.95,20.68-20.93,31.02,2.9-7.84,5.81-15.68,8.71-23.52h-9.21c2.5-8.16,5-16.32,7.5-24.48Z"/>
  <path class="st2" d="M414.5,277.43c.02,1.69-1.34,3.07-3.03,3.07h-18.91c-1.68,0-3.04-1.36-3.04-3.03v-28.94c0-1.67-1.35-3.03-3.03-3.03-.83,0-1.57.33-2.12.87-.55.53-.89,1.27-.91,2.1-.19,9.52-.38,19.04-.57,28.56-.03,1.65-1.38,2.97-3.03,2.97h-62.44c-1.68,0-3.04-1.36-3.03-3.04.02-9.47.05-18.95.08-28.42.01-1.68-1.35-3.04-3.03-3.04h-.93c-1.68,0-3.03,1.36-3.03,3.03v28.94c0,1.67-1.36,3.03-3.03,3.03h-17.99c-1.66,0-3.01-1.33-3.03-2.99-.31-24.98-.62-49.96-.93-74.94-.02-1.69,1.34-3.07,3.03-3.07h48.82c-11.13-5.15-18.85-16.42-18.85-29.5,0-17.95,14.55-32.5,32.5-32.5s32.5,14.55,32.5,32.5c0,13.08-7.72,24.35-18.85,29.5h48.89c1.66,0,3.01,1.33,3.03,2.99.31,24.98.62,49.96.93,74.94Z"/>
  <path class="st1" d="M346.5,221.5c4.64-.17,9.29-.33,13.93-.5l-8.8,17.48h8.8c-6.98,10.34-13.95,20.68-20.93,31.02,2.9-7.84,5.81-15.68,8.71-23.52h-9.21c2.5-8.16,5-16.32,7.5-24.48Z"/>
</svg>